<?xml version="1.0" encoding="UTF-8" standalone="no"?>
<svg
   width="225.62"
   height="733.07"
   viewBox="0 0 225.62 733.07"
   version="1.1"
   id="svg140"
   sodipodi:docname="doctor-woman.svg"
   inkscape:version="1.1.1 (3bf5ae0d25, 2021-09-20)"
   xmlns:inkscape="http://www.inkscape.org/namespaces/inkscape"
   xmlns:sodipodi="http://sodipodi.sourceforge.net/DTD/sodipodi-0.dtd"
   xmlns="http://www.w3.org/2000/svg"
   xmlns:svg="http://www.w3.org/2000/svg">
  <defs
     id="defs144" />
  <sodipodi:namedview
     id="namedview142"
     pagecolor="#ffffff"
     bordercolor="#666666"
     borderopacity="1.0"
     inkscape:pageshadow="2"
     inkscape:pageopacity="0.0"
     inkscape:pagecheckerboard="0"
     showgrid="false"
     inkscape:zoom="0.86622013"
     inkscape:cx="113.13521"
     inkscape:cy="366.535"
     inkscape:window-width="1920"
     inkscape:window-height="1015"
     inkscape:window-x="0"
     inkscape:window-y="0"
     inkscape:window-maximized="1"
     inkscape:current-layer="svg140" />
  <g
     id="Layer_2"
     data-name="Layer 2"
     transform="matrix(0.20511678,0,0,0.20502437,90.047037,534.15099)">
    <g
       id="Layer_1-2"
       data-name="Layer 1">
      <path
         d="m 138.3,664.64 -8.72,28.67 -34.86,1.26 -2.33,-43.11 z"
         fill="#f77f89"
         fill-rule="evenodd"
         id="path2" />
      <path
         d="m 93.19,689.61 v 37.67 l 94.26,2.13 c 0,0 -2.68,-26.92 -50.88,-27.36 0.18,-11.83 0.2,-12.44 0.2,-12.44 z"
         fill="#6367fd"
         fill-rule="evenodd"
         id="path4" />
      <path
         d="m 50.2,670.06 0.65,28.23 36.4,1.27 9.46,-31.42 z"
         fill="#f77f89"
         fill-rule="evenodd"
         id="path6" />
      <path
         d="m 105.25,0 c 39.61,0 47.81,37.63 47.83,51.45 0,13.17 -2.57,15.18 -2.48,28.53 0.06,10.14 3,17.24 2.73,23 -1.56,30 -42.12,38.65 -53.7,38.82 -11.58,0.17 -62,-9.59 -62,-32.91 C 37.63,92.62 47.98,66.6 47.7,48.53 47.08,11 78.46,0 105.25,0 Z"
         fill-rule="evenodd"
         id="path8" />
      <path
         d="m 50,693.28 0.54,37.7 92.53,2.09 c 0,0 0,-27.49 -50.68,-28 v -11.79 z"
         fill="#6367fd"
         fill-rule="evenodd"
         id="path10" />
      <path
         d="m 40.92,410.5 0.24,263.73 66.12,-1.44 1,-12.21 42.64,5.75 27.06,-275 -14.61,-70.42 -96.57,-2.64 z"
         fill="#3b4161"
         fill-rule="evenodd"
         id="path12" />
      <path
         d="m 118.82,522.56 39.65,66.63 -7.53,76.44 -42.71,-5 z"
         fill="#15192c"
         fill-rule="evenodd"
         id="path14" />
      <path
         d="m 91,342 h 70.24 l 9.51,-103.77 -12.69,-79.52 -24,-23.11 L 110,124.86 66.55,131.5 Z"
         fill="#f7d167"
         fill-rule="evenodd"
         id="path16" />
      <path
         d="M 63.38,673.75 63.84,393.22"
         fill="none"
         stroke="#737999"
         stroke-linecap="round"
         stroke-linejoin="round"
         stroke-width="1.7"
         id="path18" />
      <path
         d="m 78.93,123.58 c -16.42,0.45 -65.45,18.25 -72.61,36.31 -5.44,13.7 -9.17,137.66 3.61,143.71 a 13.88,13.88 0 0 0 2.56,0.94 c -0.77,3.8 -8.13,91.79 -6.26,99.11 1.87,7.32 6.78,18.4 13.89,18 27.51,-1.65 78.05,-37.76 83.07,-43.65 0.77,-11.16 2.9,-53.08 2.9,-53.08 L 101.71,200.54 76.64,132 c 0,0 18.71,-8.87 2.29,-8.42 z"
         fill="#ffffff"
         fill-rule="evenodd"
         id="path20" />
      <path
         d="m 114.71,122.8 c 28.23,3.51 68.08,25.4 73.21,35.37 4.32,8.38 2.13,116.87 2.13,116.87 0,0 -16,21.95 -8.79,53.52 6.62,29.12 8.58,68.43 1.64,75.78 -11.44,-5.79 -26.15,-29 -28.8,-34.72 -2.65,-5.72 -3.34,-38.08 -5.38,-45 -2.04,-6.92 -11.17,-129.43 -11.17,-129.43 0,0 -4.26,-49.49 -22.84,-72.39 z"
         fill="#ffffff"
         fill-rule="evenodd"
         id="path22" />
      <path
         d="m 43.64,133.22 c 14.21,25.91 43,55.44 57.84,66.71"
         fill="none"
         stroke="#c9c9c9"
         stroke-linecap="round"
         stroke-linejoin="round"
         stroke-width="2"
         id="path24" />
      <path
         d="m 129,125.77 c 12.65,17.06 15.91,46.05 6,75.49"
         fill="none"
         stroke="#c9c9c9"
         stroke-linecap="round"
         stroke-linejoin="round"
         stroke-width="2"
         id="path26" />
      <path
         d="M 58,205.6 A 11.26,11.26 0 1 1 69.25,216.86 11.26,11.26 0 0 1 58,205.6 Z"
         fill="none"
         stroke="#353823"
         stroke-linecap="round"
         stroke-linejoin="round"
         stroke-width="3.41"
         id="path28" />
      <path
         d="m 63.48,205.6 a 5.75,5.75 0 1 1 5.75,5.75 5.75,5.75 0 0 1 -5.75,-5.75 z"
         fill="#353823"
         fill-rule="evenodd"
         id="path30" />
      <path
         d="M 66.21,194.75 C 58.61,166.84 58.12,128 77.74,121"
         fill="none"
         stroke="#353823"
         stroke-linecap="round"
         stroke-linejoin="round"
         stroke-width="3.41"
         id="path32" />
      <path
         d="m 112,116.25 c 11.19,4.74 21.85,26.6 24.35,45.32"
         fill="none"
         stroke="#353823"
         stroke-linecap="round"
         stroke-linejoin="round"
         stroke-width="3.41"
         id="path34" />
      <path
         d="m 124.27,196.73 c -3.58,-17.3 1.82,-33 12.06,-35.16 10.24,-2.16 21.45,10.18 25,27.48 3.55,17.3 -1.82,33 -12.06,35.15 -10.24,2.15 -21.42,-10.2 -25,-27.47 z"
         fill="none"
         stroke="#353823"
         stroke-linecap="round"
         stroke-linejoin="round"
         stroke-width="3.41"
         id="path36" />
      <path
         d="m 54.63,169.52 -4.32,84.11"
         fill="none"
         stroke="#c9c9c9"
         stroke-linecap="round"
         stroke-linejoin="round"
         stroke-width="2"
         id="path38" />
      <path
         d="M 42.47,172 53.7,187.66"
         fill="none"
         stroke="#c9c9c9"
         stroke-linecap="round"
         stroke-linejoin="round"
         stroke-width="2"
         id="path40" />
      <path
         d="M 80,246.94 36.82,257.27"
         fill="#606060"
         stroke="#c9c9c9"
         stroke-linecap="round"
         stroke-linejoin="round"
         stroke-width="2"
         fill-rule="evenodd"
         id="path42" />
      <path
         d="m 39,245.72 11,8.4"
         fill="none"
         stroke="#c9c9c9"
         stroke-linecap="round"
         stroke-linejoin="round"
         stroke-width="2"
         id="path44" />
      <path
         d="m 81.64,295.65 c -18.16,7.31 -61.3,16.05 -69.45,8.81 -10.9,-9.69 -14,-109.7 -8.53,-136.23 3.19,-15.44 19.3,-25.38 27.7,-29.38"
         fill="none"
         stroke="#c9c9c9"
         stroke-linecap="round"
         stroke-linejoin="round"
         stroke-width="2"
         id="path46" />
      <path
         d="M 68.66,299.93 C 63.48,293.36 61.5,260.6 64,250.77"
         fill="none"
         stroke="#c9c9c9"
         stroke-linecap="round"
         stroke-linejoin="round"
         stroke-width="2"
         id="path48" />
      <path
         d="m 69.23,257.17 a 2.64,2.64 0 1 1 2.64,2.63 2.63,2.63 0 0 1 -2.64,-2.63 z"
         fill="#c9c9c9"
         fill-rule="evenodd"
         id="path50" />
      <path
         d="m 64.42,337.47 a 49.9,49.9 0 0 1 -18,3.35 49.76,49.76 0 0 1 -13.49,-2 16.58,16.58 0 0 0 -0.53,3.88 v 20.89 a 16.5,16.5 0 1 0 33,0 v -20.91 a 16.4,16.4 0 0 0 -0.98,-5.21 z"
         fill="none"
         stroke="#c9c9c9"
         stroke-linecap="round"
         stroke-linejoin="round"
         stroke-width="2"
         id="path52" />
      <path
         d="m 128.42,190.52 h 86.23 c 5.23,0 8.35,4.09 7,9.13 l -33.29,122.46 a 13.07,13.07 0 0 1 -12,9.13 H 90.18 c -5.22,0 -8.35,-4.09 -7,-9.13 l 33.28,-122.46 a 13.06,13.06 0 0 1 11.96,-9.13 z"
         fill="#6367fd"
         fill-rule="evenodd"
         id="path54" />
      <path
         d="m 152.22,184.22 h 48.94 a 3.23,3.23 0 0 1 3.29,4.36 l -2.38,8.32 a 6.34,6.34 0 0 1 -5.78,4.36 h -48.94 a 3.24,3.24 0 0 1 -3.29,-4.36 l 2.38,-8.32 a 6.36,6.36 0 0 1 5.78,-4.36 z"
         fill="#3b4161"
         fill-rule="evenodd"
         id="path56" />
      <path
         d="m 79.75,252.94 a 58.58,58.58 0 0 1 12.07,-5.27 c 6.07,-5 10.53,-24.75 12.14,-26 1.61,-1.25 7,-0.44 7.16,1.43 0.7,6.85 0.33,14.85 -5.74,22 17.66,-11.23 19,-16.21 23.86,-12.45 4.86,3.76 6.61,22.1 2.44,29.68 -11.48,20.92 -41.68,23.75 -50.92,23.89 -2.3,-9.95 -2.3,-21.98 -1.01,-33.28 z"
         fill="#f77f89"
         fill-rule="evenodd"
         id="path58" />
      <path
         d="m 41.15,653.65 68.28,-2.19"
         fill="none"
         stroke="#737999"
         stroke-linecap="round"
         stroke-linejoin="round"
         stroke-width="1.7"
         id="path60" />
      <path
         d="M 129.17,386.65 108.31,660.59"
         fill="none"
         stroke="#737999"
         stroke-linecap="round"
         stroke-linejoin="round"
         stroke-width="1.7"
         id="path62" />
      <path
         d="m 110,638.58 43.12,5.06"
         fill="none"
         stroke="#737999"
         stroke-linecap="round"
         stroke-linejoin="round"
         stroke-width="1.7"
         id="path64" />
      <path
         d="m 164.59,527.42 a 17.93,17.93 0 1 1 3.41,-35"
         fill="none"
         stroke="#737999"
         stroke-linecap="round"
         stroke-linejoin="round"
         stroke-width="1.7"
         id="path66" />
      <path
         d="m 117.65,539.69 a 19.79,19.79 0 0 1 1.09,-39.55 q 1,0 1.89,0.09"
         fill="none"
         stroke="#737999"
         stroke-linecap="round"
         stroke-linejoin="round"
         stroke-width="1.7"
         id="path68" />
      <path
         d="M 132.35,238.09 116.9,250.46"
         fill="none"
         stroke="#a7464f"
         stroke-linecap="round"
         stroke-linejoin="round"
         stroke-width="3.41"
         id="path70" />
      <path
         d="m 134,250.89 -19.62,15.6"
         fill="none"
         stroke="#a7464f"
         stroke-linecap="round"
         stroke-linejoin="round"
         stroke-width="3.41"
         id="path72" />
      <path
         d="m 220.16,250.3 c -0.24,-4.12 1,-13.27 4.66,-22 1.34,-3.16 1.42,-8.36 -3.29,-8.36 -5.36,0 -12.53,10.76 -9,23.57 3.53,12.81 7.98,12.61 7.63,6.79 z"
         fill="#f77f89"
         fill-rule="evenodd"
         id="path74" />
      <path
         d="m 203.56,226.09 c 4.26,0 17.21,25.62 17.12,28.73 -0.09,3.11 -1.44,7.84 -3.45,7.6 -2.01,-0.24 -18.83,-21.65 -18.83,-28.92 0,-4.21 2.05,-7.41 5.16,-7.41 z"
         fill="#f77f89"
         fill-rule="evenodd"
         id="path76" />
      <path
         d="m 198,240.81 c 5.31,0 19.31,20.42 19.41,22.76 0.1,2.34 -2.73,4.49 -5.07,4.59 -2.34,0.1 -19.07,-13.62 -19.07,-20 -0.03,-3.9 1.73,-7.35 4.73,-7.35 z"
         fill="#f77f89"
         fill-rule="evenodd"
         id="path78" />
      <path
         d="m 202.9,279 c 2.3,-0.11 8.7,-5.83 8.7,-10.33 0,-1.77 -4.47,-6.35 -6.71,-6.21 -2.24,0.14 -6.81,8.75 -6.72,10.94 0.09,2.19 1.72,5.71 4.73,5.6 z"
         fill="#f77f89"
         fill-rule="evenodd"
         id="path80" />
      <path
         d="m 211.6,235.56 c 4.59,7.64 9.13,17.42 9.08,19.26"
         fill="none"
         stroke="#a7464f"
         stroke-linecap="round"
         stroke-linejoin="round"
         stroke-width="3.41"
         id="path82" />
      <path
         d="m 201.21,242.31 c 6.32,4.76 16.09,19.31 16.17,21.26"
         fill="none"
         stroke="#a94b53"
         stroke-linecap="round"
         stroke-linejoin="round"
         stroke-width="3.41"
         id="path84" />
      <path
         d="M 63.06,58.49 C 63.06,35.6 81.37,17 104,17 c 22.63,0 40.9,18.56 40.9,41.45 0,22.89 -18.35,41.49 -40.9,41.49 -22.55,0 -40.94,-18.55 -40.94,-41.45 z"
         fill="#f77f89"
         fill-rule="evenodd"
         id="path86" />
      <path
         d="m 97.94,61.48 c 0.44,-2.64 2,-4.59 3.56,-4.33 1.56,0.26 2.42,2.6 2,5.24 -0.42,2.64 -2,4.59 -3.56,4.34 -1.56,-0.25 -2.43,-2.6 -2,-5.25 z"
         fill="#b5545c"
         fill-rule="evenodd"
         id="path88" />
      <path
         d="m 128.75,63.46 c 0.41,-2.47 1.89,-4.29 3.32,-4.05 1.43,0.24 2.26,2.43 1.86,4.9 -0.4,2.47 -1.9,4.28 -3.33,4 -1.43,-0.28 -2.26,-2.38 -1.85,-4.85 z"
         fill="#b5545c"
         fill-rule="evenodd"
         id="path90" />
      <path
         d="m 69.31,76.74 c 2.43,6.76 8.54,41.89 7,54.65 6.4,9.7 34.92,7 43.42,-1.21 C 115.5,118.37 115.34,109.9 116.89,99.94 118.36,90.62 66.88,70 69.31,76.74 Z"
         fill="#f77f89"
         fill-rule="evenodd"
         id="path92" />
      <path
         d="m 120.19,16 c 0.35,9.85 -8.64,19.26 -33.08,23.93 2.68,6.91 2.9,17.3 -10.45,19.17 C 61.09,61.26 59.82,41.37 59.82,41.37 L 83.14,13.82 c 0,0 36.71,-7.69 37.05,2.18 z"
         fill-rule="evenodd"
         id="path94" />
      <path
         d="m 112.85,9.07 c -1,8.75 9.07,30 32.39,30.58 16.58,0 -31.42,-39.34 -32.39,-30.58 z"
         fill-rule="evenodd"
         id="path96" />
      <path
         d="m 85.8,98.47 c -2.24,-2.83 1,-15.73 4.53,-21.64 4.26,-2.51 19.37,-0.42 27.16,-7.12 2.29,-2 3.52,-0.52 5.3,1.67 3.13,3.84 12.54,5.83 16.06,8 0.52,5.6 -4.62,18.42 -6.84,21.29 -3.48,4.55 -35.29,4.96 -46.21,-2.2 z"
         fill="#ffffff"
         fill-rule="evenodd"
         id="path98" />
      <path
         d="M 92.39,78 C 90.33,74.56 81.33,59.17 78.46,55.27"
         fill="none"
         stroke="#ffffff"
         stroke-linecap="round"
         stroke-linejoin="round"
         stroke-width="3.41"
         id="path100" />
      <path
         d="M 87.57,97.65 C 81.48,97.65 67,78.6 65.35,72.21"
         fill="none"
         stroke="#ffffff"
         stroke-linecap="round"
         stroke-linejoin="round"
         stroke-width="3.41"
         id="path102" />
      <path
         d="M 56.06,61.89 A 13.33,13.33 0 1 1 69.39,75.22 13.33,13.33 0 0 1 56.06,61.89 Z"
         fill="#f77f89"
         fill-rule="evenodd"
         id="path104" />
      <path
         d="M 140.29,724.16 50.43,723.54"
         fill="none"
         stroke="#4c4fd9"
         stroke-linecap="round"
         stroke-linejoin="round"
         stroke-width="1.7"
         id="path106" />
      <path
         d="m 142.21,728.57 c -2.47,-7.81 -12.13,-23.11 -49.82,-23.48 v -3.79"
         fill="none"
         stroke="#4c4fd9"
         stroke-linecap="round"
         stroke-linejoin="round"
         stroke-width="1.7"
         id="path108" />
      <path
         d="m 50.43,713.18 a 17,17 0 0 1 17,17 c 0,0.45 0,0.89 0,1.33"
         fill="none"
         stroke="#4c4fd9"
         stroke-linecap="round"
         stroke-linejoin="round"
         stroke-width="1.7"
         id="path110" />
      <path
         d="m 102.35,713.72 4.41,-7.64"
         fill="none"
         stroke="#4c4fd9"
         stroke-linecap="round"
         stroke-linejoin="round"
         stroke-width="1.7"
         id="path112" />
      <path
         d="m 112.73,715.52 3.76,-7.5"
         fill="none"
         stroke="#4c4fd9"
         stroke-linecap="round"
         stroke-linejoin="round"
         stroke-width="1.7"
         id="path114" />
      <path
         d="m 122.55,717.49 3.27,-6.07"
         fill="none"
         stroke="#4c4fd9"
         stroke-linecap="round"
         stroke-linejoin="round"
         stroke-width="1.7"
         id="path116" />
      <path
         d="m 104.69,351.64 46.7,-1.46"
         fill="none"
         stroke="#737999"
         stroke-linecap="round"
         stroke-linejoin="round"
         stroke-width="1.7"
         id="path118" />
      <path
         d="m 50.07,698.13 42.32,-0.69"
         fill="none"
         stroke="#4c4fd9"
         stroke-linecap="round"
         stroke-linejoin="round"
         stroke-width="1.7"
         id="path120" />
      <path
         d="m 93.19,694 43.52,-0.35"
         fill="none"
         stroke="#4c4fd9"
         stroke-linecap="round"
         stroke-linejoin="round"
         stroke-width="1.7"
         id="path122" />
      <path
         d="m 185.19,722.82 -46.42,-1"
         fill="none"
         stroke="#4c4fd9"
         stroke-linecap="round"
         stroke-linejoin="round"
         stroke-width="1.7"
         id="path124" />
      <path
         d="m 150.67,703.06 -4,7.11"
         fill="none"
         stroke="#4c4fd9"
         stroke-linecap="round"
         stroke-linejoin="round"
         stroke-width="1.7"
         id="path126" />
      <path
         d="m 157.34,704.65 -4,7.12"
         fill="none"
         stroke="#4c4fd9"
         stroke-linecap="round"
         stroke-linejoin="round"
         stroke-width="1.7"
         id="path128" />
      <path
         d="m 164.46,706.61 -4,7.12"
         fill="none"
         stroke="#4c4fd9"
         stroke-linecap="round"
         stroke-linejoin="round"
         stroke-width="1.7"
         id="path130" />
      <path
         d="m 32.49,419.2 c -15,6.28 -26.26,-4.91 -26.35,-16 -0.09,-11.09 4.3,-77.26 4.9,-83.86"
         fill="none"
         stroke="#c9c9c9"
         stroke-linecap="round"
         stroke-linejoin="round"
         stroke-width="2"
         id="path132" />
      <path
         d="m 189.82,174 c 0.78,-22.64 -23.06,-33 -32.87,-37.44"
         fill="none"
         stroke="#c9c9c9"
         stroke-linecap="round"
         stroke-linejoin="round"
         stroke-width="2"
         id="path134" />
      <path
         d="m 185.16,400 c 1.87,-12.07 2,-44.73 -1.16,-57.19"
         fill="none"
         stroke="#c9c9c9"
         stroke-linecap="round"
         stroke-linejoin="round"
         stroke-width="2"
         id="path136" />
    </g>
  </g>
</svg>
