<?xml version="1.0" encoding="UTF-8" standalone="no"?>
<svg
   width="389.63"
   height="723.8"
   viewBox="0 0 389.63 723.8"
   version="1.1"
   id="svg3324"
   sodipodi:docname="doctor-man.svg"
   inkscape:version="1.1.1 (3bf5ae0d25, 2021-09-20)"
   xmlns:inkscape="http://www.inkscape.org/namespaces/inkscape"
   xmlns:sodipodi="http://sodipodi.sourceforge.net/DTD/sodipodi-0.dtd"
   xmlns="http://www.w3.org/2000/svg"
   xmlns:svg="http://www.w3.org/2000/svg">
  <defs
     id="defs3328" />
  <sodipodi:namedview
     id="namedview3326"
     pagecolor="#ffffff"
     bordercolor="#666666"
     borderopacity="1.0"
     inkscape:pageshadow="2"
     inkscape:pageopacity="0.0"
     inkscape:pagecheckerboard="0"
     showgrid="false"
     inkscape:zoom="0.87731419"
     inkscape:cx="194.91307"
     inkscape:cy="361.89999"
     inkscape:window-width="1920"
     inkscape:window-height="1015"
     inkscape:window-x="0"
     inkscape:window-y="0"
     inkscape:window-maximized="1"
     inkscape:current-layer="svg3324" />
  <g
     id="Layer_2"
     data-name="Layer 2"
     transform="matrix(0.26108515,0,0,0.26108515,79.07179,534.27001)">
    <g
       id="Layer_1-2"
       data-name="Layer 1">
      <path
         d="m 82.92,647 -5.76,29.3 32.9,15.36 13.83,-30.34 z"
         fill-rule="evenodd"
         id="path3244" />
      <path
         d="m 96.35,723.8 17,-39.26 c 0,0 -19.22,-8.81 -34.77,-15.2 -24.35,3.63 -61.2,1.54 -73.4,-1 C 1.85,676.6 0,682.23 0,682.23 Z"
         fill-rule="evenodd"
         id="path3246" />
      <path
         d="m 321.84,650.19 14.16,13.1 30.6,-22.5 -10.8,-14.28 z"
         fill-rule="evenodd"
         id="path3248" />
      <path
         d="m 363.9,637.19 25.73,33.74 -55.21,43.33 h -54.56 l 0.12,-14.32 c 0,0 38.68,-7 38.56,-6.89 8,-9.53 14.5,-32.52 14.5,-32.52 z"
         fill-rule="evenodd"
         id="path3250" />
      <path
         d="m 268.45,338.14 c 0,0 17.94,132.48 24.3,146.75 6.36,14.27 67.92,142.53 67.92,142.53 l -44.49,31.91 c 0,0 -99.05,-149.33 -103.54,-157.33 -2.9,-5.12 -10.63,-35.61 -10.63,-35.61 L 125.73,674.1 75.18,651 128.25,343.48 Z"
         fill="#aadaf1"
         fill-rule="evenodd"
         id="path3252" />
      <path
         d="m 214.72,340.2 -39.72,1.51 0.29,9.58 z M 176,376.49 180.55,524.81 202,466.56 Z"
         fill="#73a9c3"
         fill-rule="evenodd"
         id="path3254" />
      <path
         d="M 202.05,466.56 172.26,362.72"
         fill="none"
         stroke="#0097f7"
         stroke-linecap="round"
         stroke-linejoin="round"
         stroke-width="1.7"
         id="path3256" />
      <path
         d="m 316.12,588.63 -41.46,-76.7 c 8.1,-8.19 11.49,-16.94 -7.08,-6.56 -13.77,7.69 -16.07,5.08 -4,-8.23 16.25,-17.88 13.42,-20.33 -2.56,-17.75"
         fill="none"
         stroke="#0097f7"
         stroke-linecap="round"
         stroke-linejoin="round"
         stroke-width="1.7"
         id="path3258" />
      <path
         d="m 264.36,473 c 0,0 -13.36,-93.68 -17.22,-105.21"
         fill="none"
         stroke="#0097f7"
         stroke-linecap="round"
         stroke-linejoin="round"
         stroke-width="1.7"
         id="path3260" />
      <path
         d="m 126.26,582.44 c 1.47,-6.29 9.43,-62.3 14.38,-63.68 23.52,-6.54 27.77,-15.69 5.3,-22.1 -22,-6.29 -21.92,-8.18 -2.08,-14.22 20.3,-6.19 16.3,-9.47 3.25,-21.12 -4.42,-3.95 15.86,-53.31 17,-58.12"
         fill="none"
         stroke="#0097f7"
         stroke-linecap="round"
         stroke-linejoin="round"
         stroke-width="1.7"
         id="path3262" />
      <path
         d="m 303.11,243 c -0.13,-7.71 1.53,-21.45 -1.91,-29.71 -3.44,-8.26 -26.15,-4.7 -26.15,-4.7 0,0 28.18,42.08 28.06,34.41 z"
         fill="#f77f89"
         fill-rule="evenodd"
         id="path3264" />
      <path
         d="m 209.47,110.15 c 51.62,0 93.74,26.15 94.15,65.78 0.25,24.87 4.83,42.76 4.83,42.76 l -45.77,11.38 c 0,0 15.9,109.17 10.32,113.76 -16.6,13.68 -133.06,18.26 -147.51,3.37 -1.27,-18.42 9.93,-67.5 9.93,-67.5 0,0 -35.54,-83.78 -16.28,-123.29 18.25,-37.45 66.23,-44.18 87.5,-44.91 1.17,-0.04 1.83,-1.35 2.83,-1.35 z"
         fill="#0097f7"
         fill-rule="evenodd"
         id="path3266" />
      <path
         d="m 240.06,42 c 0.3,-17.69 -17.77,-42 -43.79,-42 -20.39,0 -41.22,9.7 -41.75,25.48 -1.06,-6.52 -2.07,-10.55 -1.33,-14.15 -4.4,-0.22 -13.25,11.13 -13.25,26.29 0,5.86 4.57,28 17.57,27.73 13,-0.27 62.61,17.49 62.61,17.49 0,0 3.26,4.77 7.66,4.41 4.4,-0.36 12.73,-8.61 12.8,-13.16 0.07,-4.55 -4.05,-12.73 -4,-15.26 0.05,-2.53 3.17,0.83 3.48,-16.83 z"
         fill="#6a3416"
         fill-rule="evenodd"
         id="path3268" />
      <path
         d="M 177.84,161.64 168.67,195"
         fill="none"
         stroke="#000000"
         stroke-linecap="round"
         stroke-linejoin="round"
         stroke-width="3.41"
         id="path3270" />
      <path
         d="M 151.92,64.71 A 38.7,38.7 0 1 1 190.61,103.4 38.69,38.69 0 0 1 151.92,64.71 Z"
         fill="#f77f89"
         fill-rule="evenodd"
         id="path3272" />
      <path
         d="m 150.06,50 c 0,0 5.2,-1 12.85,-12.32 9.54,1.8 25.24,1.72 38.62,-2.32 0.17,8.07 6.09,21.28 14.24,19.82 8.15,-1.46 11.49,-21.1 11.49,-21.1 L 208.05,14 179,14.19 158.55,28.6 Z"
         fill="#6a3416"
         fill-rule="evenodd"
         id="path3274" />
      <path
         d="m 161.61,60.11 c -0.36,-3.09 0.61,-5.73 2.16,-5.91 1.55,-0.18 3.11,2.17 3.47,5.25 0.36,3.08 -0.61,5.73 -2.17,5.91 -1.56,0.18 -3.07,-2.17 -3.46,-5.25 z"
         fill="#90415b"
         fill-rule="evenodd"
         id="path3276" />
      <path
         d="m 229.68,72.76 c -1,6.15 -3,35.4 0.17,41.62 -7.07,7.12 -27.8,10.19 -38.66,7.1 0.85,-8.44 -2.65,-16.69 -4.52,-20.06 -1.87,-3.37 43.98,-34.82 43.01,-28.66 z"
         fill="#f77f89"
         fill-rule="evenodd"
         id="path3278" />
      <path
         d="m 187.45,55.36 c -0.36,-3.08 0.61,-5.72 2.16,-5.91 1.55,-0.19 3.11,2.17 3.46,5.26 0.35,3.09 -0.6,5.73 -2.16,5.91 -1.56,0.18 -3.1,-2.17 -3.46,-5.26 z"
         fill="#90415b"
         fill-rule="evenodd"
         id="path3280" />
      <path
         d="m 174.57,61.14 c 0.31,3.64 -2.61,17.4 -3.23,19.53 -0.62,2.13 2.71,2.92 2.71,2.92"
         fill="none"
         stroke="#90415b"
         stroke-linecap="round"
         stroke-linejoin="round"
         stroke-width="1.7"
         id="path3282" />
      <path
         d="m 153.86,76.84 c 0.2,3.87 9.34,23.83 14.73,26.9 5.39,3.07 46,2.67 55.33,-17.43 -7.66,-1.19 -12.85,-7.69 -18.91,-21.6 -13.54,2 -28.89,0 -31.36,0.13 -2.71,0.16 -9.23,9.16 -19.79,12 z"
         fill="#ffffff"
         fill-rule="evenodd"
         id="path3284" />
      <path
         d="m 234.93,150.56 c 21.24,-0.41 63.36,-3 67.59,15 4.23,18 8.25,48.87 5.93,53.1 -2.32,4.23 -45.57,9.59 -45.57,9.59 -3.42,-8.66 -22.3,-57.49 -27.95,-77.69 z"
         fill="#0097f7"
         fill-rule="evenodd"
         id="path3286" />
      <path
         d="m 280.26,269.89 c -11.7,1.9 -80.75,-46.21 -89.31,-45.27 -8.56,0.94 -30.53,0.1 -30.53,0.1 0,0 -12.5,-47.91 14.17,-49.68 1.65,-0.11 11.42,8.58 11.42,8.58 0,0 2.71,-0.86 4.6,0.69 3.45,2.82 14.67,15.57 20.28,17.59 9.44,3.41 86.05,17.9 89.72,24 3.67,6.1 7.72,39.44 -20.35,43.99 z"
         fill="#f77f89"
         fill-rule="evenodd"
         id="path3288" />
      <path
         d="m 96.8,196 h 53.55 c 6.18,0 13.2,4.58 15.69,10.24 l 37.69,85.61 c 2.49,5.65 -0.5,10.23 -6.68,10.23 h -53.54 c -6.18,0 -13.21,-4.58 -15.7,-10.23 L 90.13,206.23 C 87.64,200.57 90.63,196 96.8,196 Z"
         fill="#f7d167"
         fill-rule="evenodd"
         id="path3290" />
      <path
         d="m 95.49,265.56 c -2.55,-6.58 -4.37,-15.67 -0.79,-21.49 3.58,-5.82 17.36,-23.74 23.07,-24.07 5.71,-0.33 20.37,15.56 21.94,20.71 1.57,5.15 1,16.34 -1.46,21.16 -2.46,4.82 -12.33,14.18 -17.3,14.37 -4.97,0.19 -23.95,-6.66 -25.46,-10.68 z"
         fill="#f77f89"
         fill-rule="evenodd"
         id="path3292" />
      <path
         d="m 94.08,252.41 c -0.69,-10.62 -5.32,-22.12 -8.46,-29.92 -2.1,-5.19 -0.55,-9.64 3,-10.65 3.55,-1.01 14.56,13.51 14.88,24.74 0.32,11.23 -8.72,26.42 -9.42,15.83 z"
         fill="#f77f89"
         fill-rule="evenodd"
         id="path3294" />
      <path
         d="m 93.42,247 a 60.11,60.11 0 0 1 10.07,-15.41"
         fill="none"
         stroke="#81666f"
         stroke-linecap="round"
         stroke-linejoin="round"
         stroke-width="1.7"
         id="path3296" />
      <path
         d="m 107.62,248.72 c 0,-5.71 11.64,-22.36 16,-24.4"
         fill="none"
         stroke="#905f6f"
         stroke-linecap="round"
         stroke-linejoin="round"
         stroke-width="1.7"
         id="path3298" />
      <path
         d="m 119.05,255.44 c 0.13,-2.77 9.19,-17.86 14.38,-20.86"
         fill="none"
         stroke="#8b5d6c"
         stroke-linecap="round"
         stroke-linejoin="round"
         stroke-width="1.7"
         id="path3300" />
      <path
         d="m 140.33,166.86 c -1,5.86 -1.94,18.39 0.48,29.11"
         fill="none"
         stroke="#aadaf1"
         stroke-linecap="round"
         stroke-linejoin="round"
         stroke-width="1.7"
         id="path3302" />
      <path
         d="m 207.69,191.2 33.75,0.68"
         fill="none"
         stroke="#aadaf1"
         stroke-linecap="round"
         stroke-linejoin="round"
         stroke-width="1.7"
         id="path3304" />
      <path
         d="m 188.68,113.22 c -0.49,4.94 -6.35,36.88 13.37,36.88 12.69,0 32.39,-29.52 29.27,-38.32"
         fill="#f77f89"
         stroke="#aadaf1"
         stroke-linecap="round"
         stroke-linejoin="round"
         stroke-width="1.7"
         fill-rule="evenodd"
         id="path3306" />
      <path
         d="M 210.89,60.35 A 14.74,14.74 0 1 1 225.63,75.08 14.74,14.74 0 0 1 210.89,60.35 Z"
         fill="#f77f89"
         fill-rule="evenodd"
         id="path3308" />
      <path
         d="m 205.16,65 c 0,0 9.31,-17 19.17,-19.33"
         fill="none"
         stroke="#ffffff"
         stroke-linecap="round"
         stroke-linejoin="round"
         stroke-width="1.7"
         id="path3310" />
      <path
         d="M 223.86,86.43 231.08,74"
         fill="none"
         stroke="#ffffff"
         stroke-linecap="round"
         stroke-linejoin="round"
         stroke-width="1.7"
         id="path3312" />
      <path
         d="m 257,213.12 c -5.65,-14.81 -13.76,-36.55 -18.88,-52.13"
         fill="none"
         stroke="#aadaf1"
         stroke-linecap="round"
         stroke-linejoin="round"
         stroke-width="1.7"
         id="path3314" />
      <path
         d="m 155,80.93 c 2.64,7.21 9.31,20.37 13.6,22.81 1.71,1 7,1.6 13.74,1.35"
         fill="none"
         stroke="#c9c9c9"
         stroke-linecap="round"
         stroke-linejoin="round"
         stroke-width="3.41"
         id="path3316" />
      <path
         d="M 99.52,716.45 2.65,674.81"
         fill="none"
         stroke="#7c7c7c"
         stroke-linecap="round"
         stroke-linejoin="round"
         stroke-width="1.7"
         id="path3318" />
      <path
         d="m 279.91,708.09 51.75,-1.79 53.07,-41.8"
         fill="none"
         stroke="#7c7c7c"
         stroke-linecap="round"
         stroke-linejoin="round"
         stroke-width="1.7"
         id="path3320" />
    </g>
  </g>
</svg>
